HIERARCHY
ROOT Hips
{
  OFFSET 3.26218 96.8769 -1.78668
  CHANNELS 6 Xposition Yposition Zposition Zrotation Xrotation Yrotation
  JOINT Spine
  {
    OFFSET 0 11.0026 -2.28207
    CHANNELS 6 Xposition Yposition Zposition Zrotation Xrotation Yrotation
    JOINT Spine1
    {
      OFFSET 0 10.9693 0
      CHANNELS 6 Xposition Yposition Zposition Zrotation Xrotation Yrotation
      JOINT Spine2
      {
        OFFSET 0 10.9693 0
        CHANNELS 6 Xposition Yposition Zposition Zrotation Xrotation Yrotation
        JOINT Spine3
        {
          OFFSET 0 10.9693 0
          CHANNELS 6 Xposition Yposition Zposition Zrotation Xrotation Yrotation
          JOINT Neck
          {
            OFFSET 0 14.1034 1.41034
            CHANNELS 6 Xposition Yposition Zposition Zrotation Xrotation Yrotation
            JOINT Neck1
            {
              OFFSET 0 4.78292 0
              CHANNELS 6 Xposition Yposition Zposition Zrotation Xrotation Yrotation
              JOINT Head
              {
                OFFSET 0 4.78292 0
                CHANNELS 6 Xposition Yposition Zposition Zrotation Xrotation Yrotation
                End Site
                {
                  OFFSET 0 9.72808 0
                }
              }
            }
          }
          JOINT RightShoulder
          {
            OFFSET 0 10.0739 5.27092
            CHANNELS 6 Xposition Yposition Zposition Zrotation Xrotation Yrotation
            JOINT RightArm
            {
              OFFSET 0 20.7223 0
              CHANNELS 6 Xposition Yposition Zposition Zrotation Xrotation Yrotation
              JOINT RightForeArm
              {
                OFFSET 0 28.842 0
                CHANNELS 6 Xposition Yposition Zposition Zrotation Xrotation Yrotation
                JOINT RightHand
                {
                  OFFSET 0 25.0424 0
                  CHANNELS 6 Xposition Yposition Zposition Zrotation Xrotation Yrotation
                  JOINT RightHandThumb1
                  {
                    OFFSET -3.04472 3.62624 2.69644
                    CHANNELS 6 Xposition Yposition Zposition Zrotation Xrotation Yrotation
                    End Site
                    {
                      OFFSET 0 0 0
                    }
                  }
                  JOINT RightHandMiddle1
                  {
                    OFFSET 0 9.66998 -0.061987
                    CHANNELS 6 Xposition Yposition Zposition Zrotation Xrotation Yrotation
                    End Site
                    {
                      OFFSET 0 0 0
                    }
                  }
                }
              }
            }
          }
          JOINT LeftShoulder
          {
            OFFSET 0 10.0739 5.27092
            CHANNELS 6 Xposition Yposition Zposition Zrotation Xrotation Yrotation
            JOINT LeftArm
            {
              OFFSET 0 20.7223 0
              CHANNELS 6 Xposition Yposition Zposition Zrotation Xrotation Yrotation
              JOINT LeftForeArm
              {
                OFFSET 0 28.842 0
                CHANNELS 6 Xposition Yposition Zposition Zrotation Xrotation Yrotation
                JOINT LeftHand
                {
                  OFFSET 0 25.0424 0
                  CHANNELS 6 Xposition Yposition Zposition Zrotation Xrotation Yrotation
                  JOINT LeftHandThumb1
                  {
                    OFFSET 3.04472 3.62624 2.69644
                    CHANNELS 6 Xposition Yposition Zposition Zrotation Xrotation Yrotation
                    End Site
                    {
                      OFFSET 0 0 0
                    }
                  }
                  JOINT LeftHandMiddle1
                  {
                    OFFSET 0 9.66998 -0.061987
                    CHANNELS 6 Xposition Yposition Zposition Zrotation Xrotation Yrotation
                    End Site
                    {
                      OFFSET 0 0 0
                    }
                  }
                }
              }
            }
          }
        }
      }
    }
  }
  JOINT RightUpLeg
  {
    OFFSET -10.3008 0 0
    CHANNELS 6 Xposition Yposition Zposition Zrotation Xrotation Yrotation
    JOINT RightLeg
    {
      OFFSET 0 -44.9556 0
      CHANNELS 6 Xposition Yposition Zposition Zrotation Xrotation Yrotation
      JOINT RightFoot
      {
        OFFSET 0 -44.3497 0
        CHANNELS 6 Xposition Yposition Zposition Zrotation Xrotation Yrotation
        JOINT RightForeFoot
        {
          OFFSET 0 -4.35574 0
          CHANNELS 6 Xposition Yposition Zposition Zrotation Xrotation Yrotation
          JOINT RightToeBase
          {
            OFFSET 0 0 17.0584
            CHANNELS 6 Xposition Yposition Zposition Zrotation Xrotation Yrotation
            End Site
            {
              OFFSET 0 0 6.41607
            }
          }
        }
      }
    }
  }
  JOINT LeftUpLeg
  {
    OFFSET 10.3008 0 0
    CHANNELS 6 Xposition Yposition Zposition Zrotation Xrotation Yrotation
    JOINT LeftLeg
    {
      OFFSET 0 -44.9556 0
      CHANNELS 6 Xposition Yposition Zposition Zrotation Xrotation Yrotation
      JOINT LeftFoot
      {
        OFFSET 0 -44.3497 0
        CHANNELS 6 Xposition Yposition Zposition Zrotation Xrotation Yrotation
        JOINT LeftForeFoot
        {
          OFFSET 0 -4.35574 0
          CHANNELS 6 Xposition Yposition Zposition Zrotation Xrotation Yrotation
          JOINT LeftToeBase
          {
            OFFSET 0 0 17.0584
            CHANNELS 6 Xposition Yposition Zposition Zrotation Xrotation Yrotation
            End Site
            {
              OFFSET 0 0 7.80259
            }
          }
        }
      }
    }
  }
}
MOTION
Frames:	4
Frame Time:	0.00833333
3.9223 96.8201 -1.72858 3.18473 -12.3609 1.48916 0 11.0026 -2.28207 -2.82928 5.67723 0.220751 0 10.9693 0 -0.279975 4.87677 0.256679 0 10.9693 -8.88178e-016 -1.57783 5.26318 4.74833 2.22045e-016 10.9693 1.77636e-015 -0.935213 3.40758 0.930553 4.44089e-016 14.1034 1.41034 5.18719 0.229074 -1.73545 1.77636e-015 4.78292 0 -1.74421 0.137714 -7.7507 0 4.78292 0 -1.15916 -11.867 -0.668723 -1.33227e-015 10.0739 5.27092 84.0148 -20.4946 -2.10224 2.84217e-014 20.7223 -3.55271e-015 55.5888 74.5552 -22.2671 2.84217e-014 28.842 0 -180 76.9394 -112.843 0 25.0424 0 14.2505 -12.8402 -3.26213e-015 -3.04472 3.62624 2.69644 1.61969e-015 45.2637 -4.51883e-015 0 9.66998 -0.061987 1.59028e-015 1.98785e-015 -3.18055e-015 -1.33227e-015 10.0739 5.27092 -97.7204 -15.3273 -2.05231 0 20.7223 0 -65.0372 -0.386186 32.4886 0 28.842 -7.10543e-015 -6.21526e-008 35.9789 14.5776 -7.10543e-015 25.0424 7.10543e-015 -5.31267 -6.59781 6.40352e-015 3.04472 3.62624 2.69644 1.36644e-014 45.2637 -2.25941e-014 -7.10543e-015 9.66998 -0.061987 3.18055e-015 1.59028e-015 3.18055e-015 -10.3008 1.42109e-014 -3.55271e-015 -10.746 15.825 -7.22362 3.55271e-015 -44.9556 -8.88178e-016 2.38542e-015 6.65134 -0 0 -44.3497 1.77636e-015 1.39765 -9.32202 7.52887 0 -4.35574 -1.77636e-015 -1.41323e-015 0 -0 -3.55271e-015 0 17.0584 -1.47037e-015 -16.8592 -2.07712e-016 10.3008 0 -3.55271e-015 -2.75851 18.5174 4.57754 1.77636e-015 -44.9556 -1.77636e-015 1.65102e-016 -1.21335 -1.59063e-015 0 -44.3497 -1.77636e-015 1.55556 -5.59475 2.06683 0 -4.35574 0 -2.36057e-016 9.93923e-017 -1.59028e-015 -1.77636e-015 -4.44089e-016 17.0584 3.08028e-016 -8.97113 -1.60997e-015 
3.92266 96.819 -1.7276 3.18494 -12.3662 1.48743 0 11.0026 -2.28207 -2.82754 5.67879 0.219967 -4.44089e-016 10.9693 0 -0.281012 4.87873 0.256971 0 10.9693 0 -1.57399 5.26751 4.75281 -3.33067e-016 10.9693 0 -0.931132 3.40713 0.929622 2.22045e-016 14.1034 1.41034 5.15825 0.21875 -1.72515 1.77636e-015 4.78292 0 -1.73409 0.146882 -7.76854 4.44089e-016 4.78292 3.55271e-015 -1.1529 -11.8606 -0.669497 2.22045e-016 10.0739 5.27092 84.0968 -20.4422 -2.0683 -2.84217e-014 20.7223 -3.55271e-015 56.545 74.2575 -23.3808 2.84217e-014 28.842 0 -180 76.939 -113.112 -7.10543e-015 25.0424 -2.84217e-014 14.304 -12.7932 6.73778e-005 -3.04472 3.62624 2.69644 -5.56597e-015 45.2637 -0 0 9.66998 -0.061987 -7.95139e-016 9.93923e-016 3.18055e-015 2.22045e-016 10.0739 5.27092 -97.7342 -15.3293 -2.0563 0 20.7223 -7.10543e-015 -65.0245 -0.368374 32.4857 7.10543e-015 28.842 -7.10543e-015 -3.10225e-005 35.9961 14.5221 7.10543e-015 25.0424 -2.66454e-015 -5.37423 -6.63893 6.67065e-005 3.04472 3.62624 2.69644 4.77083e-015 45.2637 -0 -7.10543e-015 9.66998 -0.061987 7.95139e-016 0 3.18055e-015 -10.3008 -1.42109e-014 -3.55271e-015 -10.7478 15.8302 -7.21567 0 -44.9556 0 1.59028e-015 6.65438 -0 0 -44.3497 0 1.39542 -9.32483 7.52159 0 -4.35574 0 1.27657e-015 0 -0 -3.55271e-015 2.22045e-016 17.0584 1.248e-015 -16.8593 -1.03856e-016 10.3008 0 -3.55271e-015 -2.75952 18.5249 4.58148 -1.77636e-015 -44.9556 1.77636e-015 6.56602e-017 -1.21515 -1.59064e-015 1.77636e-015 -44.3497 0 1.55516 -5.5974 2.0651 -1.77636e-015 -4.35574 0 5.96354e-016 1.98785e-016 -0 0 4.44089e-016 17.0584 1.98785e-016 -8.97305 -0 
3.92222 96.8191 -1.72806 3.18515 -12.3716 1.48569 0 11.0026 -2.28207 -2.8258 5.68035 0.219182 -4.44089e-016 10.9693 0 -0.28205 4.88069 0.257263 0 10.9693 8.88178e-016 -1.57015 5.27185 4.75729 -1.11022e-016 10.9693 0 -0.92705 3.40668 0.92869 -4.44089e-016 14.1034 1.41034 5.12932 0.208421 -1.71486 0 4.78292 0 -1.72398 0.156047 -7.78637 0 4.78292 3.55271e-015 -1.14664 -11.8541 -0.670271 -1.11022e-015 10.0739 5.27092 84.1788 -20.3897 -2.03444 2.84217e-014 20.7223 0 57.4626 73.9549 -24.4561 0 28.842 -7.10543e-015 -180 76.9385 -113.382 0 25.0424 -2.84217e-014 14.3575 -12.7463 8.98204e-005 -3.04472 3.62624 2.69644 -9.60048e-015 45.2637 9.03765e-015 0 9.66998 -0.061987 2.20695e-031 -1.98785e-015 6.36111e-015 -1.11022e-015 10.0739 5.27092 -97.7481 -15.3313 -2.06029 0 20.7223 0 -65.0118 -0.350562 32.4827 0 28.842 0 -4.13754e-005 36.0133 14.4666 0 25.0424 -3.55271e-015 -5.43579 -6.68004 8.89495e-005 3.04472 3.62624 2.69644 -4.03451e-015 45.2637 9.03765e-015 0 9.66998 -0.061987 1.59028e-015 0 6.36111e-015 -10.3008 0 -3.55271e-015 -10.7496 15.8353 -7.20773 0 -44.9556 -8.88178e-016 -1.39149e-015 6.65743 -0 0 -44.3497 0 1.39319 -9.32764 7.51431 0 -4.35574 0 1.51418e-015 0 9.93923e-017 0 -4.44089e-016 17.0584 1.66013e-015 -16.8595 5.19281e-016 10.3008 0 0 -2.76052 18.5325 4.58541 -1.77636e-015 -44.9556 1.77636e-015 -1.16283e-016 -1.21694 -7.95318e-016 -1.77636e-015 -44.3497 0 1.55475 -5.60005 2.06337 -1.77636e-015 -4.35574 -1.77636e-015 3.60297e-016 0 -1.59028e-015 1.77636e-015 -4.44089e-016 17.0584 -1.08357e-015 -8.97497 -1.60999e-015 
3.92346 96.8183 -1.72489 3.18536 -12.3769 1.48395 1.77636e-015 11.0026 -2.28207 -2.82405 5.68191 0.218398 4.44089e-016 10.9693 0 -0.283088 4.88265 0.257555 0 10.9693 -4.44089e-016 -1.56631 5.27619 4.76177 0 10.9693 1.77636e-015 -0.922969 3.40623 0.927759 0 14.1034 1.41034 5.10038 0.198086 -1.70457 -1.77636e-015 4.78292 0 -1.71386 0.165208 -7.80421 0 4.78292 0 -1.14038 -11.8477 -0.671046 -4.44089e-016 10.0739 5.27092 84.2606 -20.3372 -2.00067 0 20.7223 0 58.3433 73.6478 -25.4945 0 28.842 0 -180 76.9381 -113.652 0 25.0424 0 14.4109 -12.6993 6.73528e-005 -3.04472 3.62624 2.69644 -3.97569e-015 45.2637 -0 0 9.66998 -0.061987 -7.95139e-016 1.19271e-015 -3.18055e-015 -4.44089e-016 10.0739 5.27092 -97.7619 -15.3334 -2.06428 2.84217e-014 20.7223 0 -64.9991 -0.332751 32.4798 7.10543e-015 28.842 7.10543e-015 -3.11072e-005 36.0306 14.4111 -7.10543e-015 25.0424 -1.77636e-015 -5.49736 -6.72115 6.67177e-005 3.04472 3.62624 2.69644 7.21506e-015 45.2637 -9.03765e-015 7.10543e-015 9.66998 -0.061987 -2.38542e-015 1.59028e-015 -0 -10.3008 0 0 -10.7514 15.8405 -7.19979 -3.55271e-015 -44.9556 8.88178e-016 2.3985e-015 6.66047 1.60108e-015 -3.55271e-015 -44.3497 0 1.39097 -9.33044 7.50702 3.55271e-015 -4.35574 1.77636e-015 -8.18434e-016 1.98785e-016 -0 -3.55271e-015 2.22045e-016 17.0584 -1.67071e-015 -16.8596 -2.07712e-016 10.3008 0 -3.55271e-015 -2.76153 18.54 4.58935 0 -44.9556 0 3.3832e-017 -1.21874 1.59064e-015 0 -44.3497 0 1.55435 -5.6027 2.06164 0 -4.35574 0 1.49089e-016 -9.93923e-017 3.18055e-015 0 -4.44089e-016 17.0584 6.63948e-016 -8.97689 3.22e-015 
